G04 #@! TF.FileFunction,Legend,Bot*
%FSLAX46Y46*%
G04 Gerber Fmt 4.6, Leading zero omitted, Abs format (unit mm)*
G04 Created by KiCad (PCBNEW 4.0.5+dfsg1-4) date Fri Mar 16 17:39:05 2018*
%MOMM*%
%LPD*%
G01*
G04 APERTURE LIST*
%ADD10C,0.100000*%
%ADD11C,0.200000*%
G04 APERTURE END LIST*
D10*
D11*
X148736095Y-112928571D02*
X148698000Y-112966666D01*
X148659905Y-113042857D01*
X148659905Y-113233333D01*
X148698000Y-113309523D01*
X148736095Y-113347619D01*
X148812286Y-113385714D01*
X148888476Y-113385714D01*
X149002762Y-113347619D01*
X149459905Y-112890476D01*
X149459905Y-113385714D01*
X148659905Y-113880952D02*
X148659905Y-113957143D01*
X148698000Y-114033333D01*
X148736095Y-114071428D01*
X148812286Y-114109524D01*
X148964667Y-114147619D01*
X149155143Y-114147619D01*
X149307524Y-114109524D01*
X149383714Y-114071428D01*
X149421810Y-114033333D01*
X149459905Y-113957143D01*
X149459905Y-113880952D01*
X149421810Y-113804762D01*
X149383714Y-113766666D01*
X149307524Y-113728571D01*
X149155143Y-113690476D01*
X148964667Y-113690476D01*
X148812286Y-113728571D01*
X148736095Y-113766666D01*
X148698000Y-113804762D01*
X148659905Y-113880952D01*
X149459905Y-114909524D02*
X149459905Y-114452381D01*
X149459905Y-114680952D02*
X148659905Y-114680952D01*
X148774190Y-114604762D01*
X148850381Y-114528571D01*
X148888476Y-114452381D01*
X149002762Y-115366667D02*
X148964667Y-115290476D01*
X148926571Y-115252381D01*
X148850381Y-115214286D01*
X148812286Y-115214286D01*
X148736095Y-115252381D01*
X148698000Y-115290476D01*
X148659905Y-115366667D01*
X148659905Y-115519048D01*
X148698000Y-115595238D01*
X148736095Y-115633334D01*
X148812286Y-115671429D01*
X148850381Y-115671429D01*
X148926571Y-115633334D01*
X148964667Y-115595238D01*
X149002762Y-115519048D01*
X149002762Y-115366667D01*
X149040857Y-115290476D01*
X149078952Y-115252381D01*
X149155143Y-115214286D01*
X149307524Y-115214286D01*
X149383714Y-115252381D01*
X149421810Y-115290476D01*
X149459905Y-115366667D01*
X149459905Y-115519048D01*
X149421810Y-115595238D01*
X149383714Y-115633334D01*
X149307524Y-115671429D01*
X149155143Y-115671429D01*
X149078952Y-115633334D01*
X149040857Y-115595238D01*
X149002762Y-115519048D01*
X147516857Y-110890477D02*
X147516857Y-110623810D01*
X147935905Y-110623810D02*
X147135905Y-110623810D01*
X147135905Y-111004763D01*
X147935905Y-111652381D02*
X147516857Y-111652381D01*
X147440667Y-111614286D01*
X147402571Y-111538096D01*
X147402571Y-111385715D01*
X147440667Y-111309524D01*
X147897810Y-111652381D02*
X147935905Y-111576191D01*
X147935905Y-111385715D01*
X147897810Y-111309524D01*
X147821619Y-111271429D01*
X147745429Y-111271429D01*
X147669238Y-111309524D01*
X147631143Y-111385715D01*
X147631143Y-111576191D01*
X147593048Y-111652381D01*
X147897810Y-112376191D02*
X147935905Y-112300001D01*
X147935905Y-112147620D01*
X147897810Y-112071429D01*
X147859714Y-112033334D01*
X147783524Y-111995239D01*
X147554952Y-111995239D01*
X147478762Y-112033334D01*
X147440667Y-112071429D01*
X147402571Y-112147620D01*
X147402571Y-112300001D01*
X147440667Y-112376191D01*
X147897810Y-113023810D02*
X147935905Y-112947620D01*
X147935905Y-112795239D01*
X147897810Y-112719048D01*
X147821619Y-112680953D01*
X147516857Y-112680953D01*
X147440667Y-112719048D01*
X147402571Y-112795239D01*
X147402571Y-112947620D01*
X147440667Y-113023810D01*
X147516857Y-113061905D01*
X147593048Y-113061905D01*
X147669238Y-112680953D01*
X147935905Y-113519048D02*
X147897810Y-113442857D01*
X147821619Y-113404762D01*
X147135905Y-113404762D01*
X147897810Y-114128572D02*
X147935905Y-114052382D01*
X147935905Y-113900001D01*
X147897810Y-113823810D01*
X147821619Y-113785715D01*
X147516857Y-113785715D01*
X147440667Y-113823810D01*
X147402571Y-113900001D01*
X147402571Y-114052382D01*
X147440667Y-114128572D01*
X147516857Y-114166667D01*
X147593048Y-114166667D01*
X147669238Y-113785715D01*
X147897810Y-114471429D02*
X147935905Y-114547619D01*
X147935905Y-114700000D01*
X147897810Y-114776191D01*
X147821619Y-114814286D01*
X147783524Y-114814286D01*
X147707333Y-114776191D01*
X147669238Y-114700000D01*
X147669238Y-114585715D01*
X147631143Y-114509524D01*
X147554952Y-114471429D01*
X147516857Y-114471429D01*
X147440667Y-114509524D01*
X147402571Y-114585715D01*
X147402571Y-114700000D01*
X147440667Y-114776191D01*
X147897810Y-115119048D02*
X147935905Y-115195238D01*
X147935905Y-115347619D01*
X147897810Y-115423810D01*
X147821619Y-115461905D01*
X147783524Y-115461905D01*
X147707333Y-115423810D01*
X147669238Y-115347619D01*
X147669238Y-115233334D01*
X147631143Y-115157143D01*
X147554952Y-115119048D01*
X147516857Y-115119048D01*
X147440667Y-115157143D01*
X147402571Y-115233334D01*
X147402571Y-115347619D01*
X147440667Y-115423810D01*
X147402571Y-115690476D02*
X147402571Y-115995238D01*
X147135905Y-115804762D02*
X147821619Y-115804762D01*
X147897810Y-115842857D01*
X147935905Y-115919048D01*
X147935905Y-115995238D01*
X147897810Y-116566667D02*
X147935905Y-116490477D01*
X147935905Y-116338096D01*
X147897810Y-116261905D01*
X147821619Y-116223810D01*
X147516857Y-116223810D01*
X147440667Y-116261905D01*
X147402571Y-116338096D01*
X147402571Y-116490477D01*
X147440667Y-116566667D01*
X147516857Y-116604762D01*
X147593048Y-116604762D01*
X147669238Y-116223810D01*
X147897810Y-117290476D02*
X147935905Y-117214286D01*
X147935905Y-117061905D01*
X147897810Y-116985714D01*
X147859714Y-116947619D01*
X147783524Y-116909524D01*
X147554952Y-116909524D01*
X147478762Y-116947619D01*
X147440667Y-116985714D01*
X147402571Y-117061905D01*
X147402571Y-117214286D01*
X147440667Y-117290476D01*
X147935905Y-117633333D02*
X147135905Y-117633333D01*
X147935905Y-117976190D02*
X147516857Y-117976190D01*
X147440667Y-117938095D01*
X147402571Y-117861905D01*
X147402571Y-117747619D01*
X147440667Y-117671428D01*
X147478762Y-117633333D01*
M02*
